<svg xmlns="http://www.w3.org/2000/svg" xmlns:xlink="http://www.w3.org/1999/xlink" version="1.1" id="Layer_1" x="0px" y="0px" viewBox="0 2 98 98" xml:space="preserve" width="0" height="0">
<path d="M87.8,26.7H75.4V13.4c0-1.7-1.3-3-3-3H10.2c-1.7,0-3,1.3-3,3v43.3c0,1.7,1.3,3,3,3h12.4V73c0,1.7,1.3,3,3,3  h26.8l13.4,14.7c0.6,0.6,1.4,1,2.2,1c0.3,0,0.5,0,0.8-0.1c1.1-0.3,1.9-1.1,2.2-2.2L74,76h13.8c1.7,0,3-1.3,3-3V29.7  C90.8,28,89.5,26.7,87.8,26.7z M22.6,29.7v24h-9.4V16.4h56.2v10.3H25.6C23.9,26.7,22.6,28,22.6,29.7z M84.8,70H71.6  c-1.4,0-2.6,1-2.9,2.3l-2.3,10.1L55.9,70.9c-0.6-0.6-1.4-1-2.2-1H28.6V32.7h56.2V70z"/>
</svg>
