<svg xmlns="http://www.w3.org/2000/svg" xmlns:xlink="http://www.w3.org/1999/xlink" version="1.1" x="0px" y="0px" viewBox="0 2 98 98"  xml:space="preserve" width="0" height="0">
<g>
	<path d="M79.5,35.8C79.5,19,65.8,5.3,49,5.3S18.5,19,18.5,35.8c0,9.2,4.1,17.5,10.6,23.1l-1.4,33.6v0.1   c0,1.6,0.9,3,2.4,3.7c1.4,0.7,3.1,0.4,4.3-0.6L49,83.1l14.6,12.6c0.8,0.7,1.7,1,2.6,1c0.6,0,1.1-0.1,1.7-0.4   c1.4-0.7,2.3-2.1,2.3-3.7v-0.1l-1.4-33.6C75.4,53.3,79.5,45,79.5,35.8z M51.7,77.5c-1.5-1.4-3.9-1.4-5.4,0L33.9,88.2L35,62.9   c4.2,2.2,9,3.4,14,3.4c5.1,0,9.8-1.2,14-3.4l1.1,25.3L51.7,77.5z M49,60.3c-13.5,0-24.5-11-24.5-24.5s11-24.5,24.5-24.5   s24.5,11,24.5,24.5S62.5,60.3,49,60.3z"/>
	<path d="M58.1,26.7L45,39.8l-6.1-6.2c-1.2-1.2-3.1-1.2-4.2,0c-1.2,1.2-1.2,3.1,0,4.2l8.2,8.3c0.6,0.6,1.3,0.9,2.1,0.9   s1.6-0.3,2.1-0.9l15.2-15.2c1.2-1.2,1.2-3.1,0-4.2C61.1,25.5,59.2,25.5,58.1,26.7z"/>
</g>
</svg>
