<svg xmlns="http://www.w3.org/2000/svg" xmlns:xlink="http://www.w3.org/1999/xlink" version="1.1" id="Layer_1" x="0px" y="0px" viewBox="0 2 98 98" xml:space="preserve" width="0" height="0">
<path d="M64,53c-0.9,0-2,0-3,0.1V19c0-7.9-17-10-27-10S7,11.1,7,19v50c0,7.4,14.5,10,27,10c1,0,2,0,3-0.1V83  c0,7.4,14.5,10,27,10s27-2.6,27-10V63C91,55.1,74,53,64,53z M85,72.8c-0.9,1.3-8,4.2-21,4.2s-20.1-2.9-21-4.2v-3.1  c5.9,2.5,14.8,3.3,21,3.3s15.1-0.8,21-3.3V72.8z M13,55.7C18.4,58,26.6,59,34,59c1.6,0,3.3,0,4.9-0.1c-1.2,1.1-1.9,2.4-1.9,4  c-1,0-2,0.1-3,0.1c-13,0-20.1-2.9-21-4.2V55.7z M13,45.7C18.4,48,26.6,49,34,49s15.6-0.9,21-3.3v3c-0.9,1.3-8,4.2-21,4.2  S13.9,50,13,48.7V45.7z M13,35.7C18.4,38,26.6,39,34,39s15.6-0.9,21-3.3v3c-0.9,1.3-8,4.2-21,4.2S13.9,40,13,38.7V35.7z M13,25.7  c5.9,2.5,14.8,3.3,21,3.3s15.1-0.8,21-3.3v3.1c-0.9,1.3-8,4.2-21,4.2s-20.1-2.9-21-4.2V25.7z M84.8,63c-1.6,1.4-8.6,4-20.8,4  s-19.2-2.6-20.8-4c1.6-1.4,8.6-4,20.8-4S83.2,61.6,84.8,63z M34,15c12.2,0,19.2,2.6,20.8,4c-1.6,1.4-8.6,4-20.8,4s-19.2-2.6-20.8-4  C14.8,17.6,21.8,15,34,15z M13,68.8v-3c5.4,2.3,13.6,3.3,21,3.3c1,0,2,0,3-0.1v4c-1,0-2,0.1-3,0.1C21,73,13.9,70.1,13,68.8z M64,87  c-13,0-20.1-2.9-21-4.2v-3c5.4,2.3,13.6,3.3,21,3.3s15.6-0.9,21-3.3v3C84.1,84.1,77,87,64,87z"/>
</svg>
