<svg xmlns="http://www.w3.org/2000/svg" xmlns:xlink="http://www.w3.org/1999/xlink" version="1.1" id="Layer_1" x="0px" y="0px" viewBox="0 2 98 98" style="enable-background:new 0 2 98 98;" xml:space="preserve" width="512" height="512">
<g>
	<path d="M55.4,20.4H42.7c-1.7,0-3,1.3-3,3v55.1c0,1.7,1.3,3,3,3h12.7c1.7,0,3-1.3,3-3V23.4   C58.4,21.7,57.1,20.4,55.4,20.4z M52.4,75.5h-6.7V26.4h6.7V75.5z"/>
	<path d="M29,45.3H16.3c-1.7,0-3,1.3-3,3v30.3c0,1.7,1.3,3,3,3H29c1.7,0,3-1.3,3-3V48.3C32,46.6,30.7,45.3,29,45.3z    M26,75.6h-6.7V51.3H26V75.6z"/>
	<path d="M81.7,38.2H69c-1.7,0-3,1.3-3,3v37.4c0,1.7,1.3,3,3,3h12.7c1.7,0,3-1.3,3-3V41.2   C84.7,39.5,83.4,38.2,81.7,38.2z M78.7,75.6H72V44.2h6.7V75.6z"/>
</g>
</svg>
