<?xml version="1.0" encoding="utf-8"?>
<!-- Generator: Adobe Illustrator 22.1.0, SVG Export Plug-In . SVG Version: 6.00 Build 0)  -->
<svg version="1.1" id="Layer_1" xmlns="http://www.w3.org/2000/svg" xmlns:xlink="http://www.w3.org/1999/xlink" x="0px" y="0px"
	 viewBox="0 0 88.3 80.8" style="enable-background:new 0 0 88.3 80.8;" xml:space="preserve">
<g>
	<path d="M85.2,0H3C1.3,0,0,1.3,0,3v21.2c0,1.7,1.3,3,3,3h3.7v50.6c0,1.7,1.3,3,3,3h69c1.7,0,3-1.3,3-3V27.2h3.6c1.7,0,3-1.3,3-3V3
		C88.2,1.3,86.9,0,85.2,0z M75.7,74.8h-63V27.2h63V74.8z M82.3,21.2L82.3,21.2H6V6h76.3C82.3,6,82.3,21.2,82.3,21.2z"/>
	<path d="M26.5,55.1h35.4c1.7,0,3-1.3,3-3V37.8c0-1.7-1.3-3-3-3H26.5c-1.7,0-3,1.3-3,3v14.3C23.5,53.8,24.8,55.1,26.5,55.1z
		 M29.5,40.8h29.4v8.3H29.5V40.8z"/>
</g>
</svg>
