<svg version="1.1" id="Layer_1" xmlns="http://www.w3.org/2000/svg" xmlns:xlink="http://www.w3.org/1999/xlink" width="0" height="0"
	 viewBox="0 0 446 477" xml:space="preserve">
<g>
	<path d="M156.6,364.2c-28.2,0-51.2,23-51.2,51.2s23,51.2,51.2,51.2s51.2-23,51.2-51.2
		C207.8,387.2,184.9,364.2,156.6,364.2z M156.6,435.2c-11,0-19.9-8.9-19.9-19.9s8.9-19.9,19.9-19.9s19.9,8.9,19.9,19.9
		S167.6,435.2,156.6,435.2z"/>
	<path d="M342.6,364.2c-28.2,0-51.2,23-51.2,51.2s23,51.2,51.2,51.2s51.2-23,51.2-51.2
		C393.8,387.2,370.9,364.2,342.6,364.2z M342.6,435.2c-11,0-19.9-8.9-19.9-19.9s8.9-19.9,19.9-19.9s19.9,8.9,19.9,19.9
		S353.6,435.2,342.6,435.2z"/>
	<path d="M391.8,265.4l42.3-131.7c1.6-4.7,0.5-9.9-2.1-14.1c-3.1-4.2-7.8-6.3-12.5-6.3H114.3l-11.5-71.6
		c-1-6.8-6.3-12-12.5-13.1L29.7,18.3c-8.4-1-16.7,4.7-18.3,13.1s4.2,16.7,12.5,18.3L73.1,58l45.5,277.4c1,7.8,7.8,13.1,15.7,13.1
		h244c8.9,0,15.7-6.8,15.7-15.7c0-8.9-6.8-15.7-15.7-15.7H147.8l-6.8-40.8h235.6C383.4,276.4,389.7,272.2,391.8,265.4z M135.8,245.1
		l-16.2-100.3h277.9l-32.4,100.3H135.8z"/>
</g>
</svg>
