<svg xmlns="http://www.w3.org/2000/svg" xmlns:xlink="http://www.w3.org/1999/xlink" version="1.1" id="Layer_1" x="0px" y="0px" viewBox="0 2 98 98" style="enable-background:new 0 2 98 98;" xml:space="preserve" width="512" height="512">
<path class="st0" d="M96.2,77.2L79.5,46c0-0.1-0.1-0.1-0.1-0.2c0,0,0-0.1-0.1-0.1c-0.1-0.1-0.2-0.3-0.3-0.4c0,0-0.1,0-0.1-0.1  c-0.1-0.1-0.2-0.2-0.3-0.3l-0.1-0.1c-0.1-0.1-0.3-0.2-0.4-0.2c0,0,0,0-0.1,0c-0.1-0.1-0.3-0.1-0.4-0.1h-0.1c-0.2,0-0.4-0.1-0.5-0.1  l0,0H52v-5.1c8.5-1.4,15-8.8,15-17.7c0-9.9-8.1-18-18-18s-18,8.1-18,18c0,8.9,6.5,16.3,15,17.7v5.1H21.1l0,0c-0.2,0-0.4,0-0.5,0.1  h-0.1c-0.1,0-0.3,0.1-0.4,0.1c0,0,0,0-0.1,0c-0.2,0.1-0.3,0.1-0.4,0.2l-0.1,0.1c-0.1,0.1-0.2,0.2-0.3,0.3c0,0,0,0-0.1,0.1  s-0.2,0.3-0.3,0.4c0,0,0,0.1-0.1,0.1c0,0.1-0.1,0.1-0.1,0.2L1.8,77.2c-0.2,0.4-0.4,0.9-0.4,1.4c0,10.9,8.9,19.8,19.8,19.8  s19.7-8.9,19.7-19.8c0-0.5-0.1-1-0.4-1.4L26.1,50.3h45.8L57.5,77.2c-0.2,0.4-0.4,0.9-0.4,1.4c0,10.9,8.9,19.8,19.8,19.8  s19.7-8.9,19.7-19.8C96.6,78.2,96.5,77.8,96.2,77.2z M49,9.6c6.6,0,12,5.4,12,12c0,0.8-0.1,1.6-0.2,2.4H51l-3.2-7.8  c-0.6-1.5-2.4-2.3-3.9-1.6c-1.5,0.6-2.3,2.4-1.6,3.9l2.3,5.4h-7.3c-0.2-0.8-0.2-1.6-0.2-2.4C37,14.9,42.4,9.6,49,9.6z M40.4,29.9H49  l0,0l0,0h8.5c-2.2,2.2-5.2,3.6-8.6,3.6C45.7,33.6,42.6,32.2,40.4,29.9z M73.9,75.8h-8.8l8.8-16.4V75.8z M79.9,59.3l8.7,16.3h-8.7  V59.3z M9.4,75.8l8.7-16.3v16.3H9.4z M24.1,59.3l8.8,16.4h-8.8C24.1,75.8,24.1,59.3,24.1,59.3z M21.2,92.4  c-6.6,0-12.1-4.6-13.5-10.8h26.8C33.2,87.9,27.7,92.4,21.2,92.4z M76.9,92.4c-6.6,0-12.1-4.6-13.5-10.8h26.8  C88.9,87.9,83.4,92.4,76.9,92.4z"/>
</svg>
