<svg xmlns="http://www.w3.org/2000/svg" xmlns:xlink="http://www.w3.org/1999/xlink" version="1.1" id="Layer_1" x="0px" y="0px" viewBox="0 2 98 98" style="enable-background:new 0 2 98 98;" xml:space="preserve" width="512" height="512">
<g>
	<path d="M78.3,12.4H19.7c-1.7,0-3,1.3-3,3v75.2c0,1.7,1.3,3,3,3h58.6c1.7,0,3-1.3,3-3V15.4   C81.3,13.7,80,12.4,78.3,12.4z M75.3,87.6H22.7V18.4h52.6V87.6z"/>
	<path d="M31.8,46h34.3c1.7,0,3-1.3,3-3V27.5c0-1.7-1.3-3-3-3H31.8c-1.7,0-3,1.3-3,3V43C28.8,44.7,30.1,46,31.8,46z    M34.8,30.5h28.3V40H34.8V30.5z"/>
	<path d="M31.8,59.3H65c1.7,0,3-1.3,3-3s-1.3-3-3-3H31.8c-1.7,0-3,1.3-3,3S30.1,59.3,31.8,59.3z"/>
	<path d="M31.8,70.4h34.4c1.7,0,3-1.3,3-3s-1.3-3-3-3H31.8c-1.7,0-3,1.3-3,3S30.1,70.4,31.8,70.4z"/>
	<path d="M31.8,81.5h34.4c1.7,0,3-1.3,3-3s-1.3-3-3-3H31.8c-1.7,0-3,1.3-3,3S30.1,81.5,31.8,81.5z"/>
</g>
</svg>
