<svg xmlns="http://www.w3.org/2000/svg" xmlns:xlink="http://www.w3.org/1999/xlink" version="1.1" id="Layer_1" x="0px" y="0px" viewBox="0 2 98 98" style="enable-background:new 0 2 98 98;" xml:space="preserve" width="0" height="0">
<g>

	<path class="st0" d="M77.5,25c-6.6-9.5-17-14.9-28.5-14.9S27.1,15.5,20.5,25c-6.5,9.4-8,21.4-4,31.9c1.1,2.9,2.8,5.7,5,8.3   l25.2,29.6c0.6,0.7,1.4,1.1,2.3,1.1s1.7-0.4,2.3-1.1l25.2-29.6c2.3-2.6,4-5.4,5-8.3C85.5,46.4,84,34.4,77.5,25z M75.9,54.9   c-0.8,2.2-2.1,4.4-4,6.5l0,0L49,88.3l-22.9-27c-1.8-2.1-3.1-4.3-4-6.5c-3.3-8.7-2-18.6,3.4-26.4s14-12.3,23.5-12.3   s18.1,4.5,23.5,12.3S79.2,46.1,75.9,54.9z"/>

	<path class="st1" d="M49,27.9c-9.3,0-16.8,7.5-16.8,16.8S39.7,61.5,49,61.5S65.8,54,65.8,44.7S58.3,27.9,49,27.9z M49,55.5   c-6,0-10.8-4.8-10.8-10.8S43,33.9,49,33.9s10.8,4.8,10.8,10.8S55,55.5,49,55.5z"/>
</g>
</svg>
