<svg xmlns="http://www.w3.org/2000/svg" xmlns:xlink="http://www.w3.org/1999/xlink" version="1.1" id="Layer_1" x="0px" y="0px" viewBox="0 2 98 98" xml:space="preserve" width="0" height="0">
<path d="M91.6,84.9h-4.7V42.5c0-1.7-1.3-3-3-3H68.6c-1.7,0-3,1.3-3,3v42.4h-4.9v-25c0-1.7-1.3-3-3-3H42.4  c-1.7,0-3,1.3-3,3v25h-4.9v-13c0-1.7-1.3-3-3-3H16.2c-1.7,0-3,1.3-3,3v13H9.4V56.3C18,54.8,45,48.1,61.3,22.2l2.2,11  c0.3,1.4,1.5,2.4,2.9,2.4c0.2,0,0.4,0,0.6-0.1c1.6-0.3,2.7-1.9,2.4-3.5l-3.7-18.5c-0.3-1.6-1.9-2.7-3.5-2.4l-18.5,3.7  c-1.6,0.3-2.7,1.9-2.4,3.5c0.3,1.6,1.9,2.7,3.5,2.4l11.8-2.4c-14.3,23.1-38.4,30-47.2,31.8V31.5c0-1.7-1.3-3-3-3s-3,1.3-3,3v56.4  c0,1.7,1.3,3,3,3h85.2c1.7,0,3-1.3,3-3S93.3,84.9,91.6,84.9z M71.6,45.5h9.3v39.4h-9.3V45.5z M45.4,62.9h9.3v22h-9.3V62.9z   M19.2,74.9h9.3v10h-9.3V74.9z"/>
</svg>
