<svg xmlns="http://www.w3.org/2000/svg" xmlns:xlink="http://www.w3.org/1999/xlink" version="1.1" id="Layer_1" x="0px" y="0px" viewBox="0 2 98 98" style="enable-background:new 0 2 98 98;" xml:space="preserve" width="512" height="512">
<g>
	<path d="M75,13H23c-3.9,0-7,3.1-7,7v66c0,3.9,3.1,7,7,7h52c3.9,0,7-3.1,7-7V20C82,16.1,78.9,13,75,13z M40,19h18v7H40   V19z M76,86c0,0.5-0.5,1-1,1H23c-0.5,0-1-0.5-1-1V20c0-0.5,0.5-1,1-1h11v10c0,1.7,1.3,3,3,3h24c1.7,0,3-1.3,3-3V19h11   c0.5,0,1,0.5,1,1V86z"/>

	<path d="M39,53h19c1.7,0,3-1.3,3-3s-1.3-3-3-3H39c-1.7,0-3,1.3-3,3S37.3,53,39,53z"/>

	<path d="M65,59H33c-1.7,0-3,1.3-3,3s1.3,3,3,3h32c1.7,0,3-1.3,3-3S66.7,59,65,59z"/>
	<path d="M65,71H33c-1.7,0-3,1.3-3,3s1.3,3,3,3h32c1.7,0,3-1.3,3-3S66.7,71,65,71z"/>
</g>
</svg>
