<svg xmlns="http://www.w3.org/2000/svg" xmlns:xlink="http://www.w3.org/1999/xlink" version="1.1" id="Layer_1" x="0px" y="0px" viewBox="0 2 98 98" xml:space="preserve" width="0" height="0">
<g>
	<path d="M17.8,54.8c1.7,0,3-1.3,3-3V31.6H73l-7.6,7.6c-1.2,1.2-1.2,3.1,0,4.2c0.6,0.6,1.4,0.9,2.1,0.9s1.5-0.3,2.1-0.9   l12.3-12.3c0.8-0.5,1.4-1.5,1.4-2.5c0-1.1-0.5-2-1.4-2.5L69.6,13.7c-1.2-1.2-3.1-1.2-4.2,0c-1.1,1.2-1.2,3.1,0,4.2l7.6,7.7H17.8   c-1.7,0-3,1.3-3,3v23.2C14.8,53.5,16.1,54.8,17.8,54.8z"/>
	<path d="M80.2,50.2c-1.7,0-3,1.3-3,3v21.2H25l7.6-7.6c1.2-1.2,1.2-3.1,0-4.2c-1.2-1.2-3.1-1.2-4.2,0L15.6,75.3   c-0.1,0.1-0.3,0.3-0.4,0.5c0,0.1-0.1,0.1-0.1,0.2c-0.1,0.1-0.1,0.2-0.2,0.3c0,0.1-0.1,0.2-0.1,0.3c0,0.1-0.1,0.2-0.1,0.3   c0,0.2-0.1,0.4-0.1,0.6v0.1c0,0.2,0,0.3,0.1,0.5c0,0.1,0,0.2,0.1,0.3c0,0.1,0.1,0.2,0.1,0.3c0,0.1,0.1,0.2,0.1,0.3   c0,0.1,0.1,0.2,0.1,0.2c0.1,0.1,0.2,0.2,0.3,0.4c0,0,0,0.1,0.1,0.1l12.7,12.8c0.6,0.6,1.4,0.9,2.1,0.9c0.8,0,1.5-0.3,2.1-0.9   c1.2-1.2,1.2-3.1,0-4.2L25,80.4h55.2c1.7,0,3-1.3,3-3V53.2C83.2,51.5,81.8,50.2,80.2,50.2z"/>
</g>
</svg>
