<svg xmlns="http://www.w3.org/2000/svg" xmlns:xlink="http://www.w3.org/1999/xlink" version="1.1" id="Layer_1" x="0px" y="0px" viewBox="0 2 98 98" style="enable-background:new 0 2 98 98;" xml:space="preserve" width="512" height="512">
<g>

	<path d="M85.5,15h-73c-2.8,0-5,2.2-5,5v50c0,2.8,2.2,5,5,5h24.7l9.3,14.6C47,90.5,48,91,49,91l0,0c1,0,2-0.5,2.5-1.4   L60.8,75h24.7c2.8,0,5-2.2,5-5V20C90.5,17.2,88.3,15,85.5,15z M84.5,69H59.1c-1,0-2,0.5-2.5,1.4l-7.6,12l-7.7-12   c-0.6-0.9-1.5-1.4-2.5-1.4H13.5V21h71V69z"/>

	<path d="M25.5,35h47c1.7,0,3-1.3,3-3s-1.3-3-3-3h-47c-1.7,0-3,1.3-3,3S23.8,35,25.5,35z"/>

	<path d="M25.5,48h47c1.7,0,3-1.3,3-3s-1.3-3-3-3h-47c-1.7,0-3,1.3-3,3S23.8,48,25.5,48z"/>

	<path d="M25.5,61h28c1.7,0,3-1.3,3-3s-1.3-3-3-3h-28c-1.7,0-3,1.3-3,3S23.8,61,25.5,61z"/>
</g>
</svg>
