<svg version="1.1" id="Layer_1" xmlns="http://www.w3.org/2000/svg" xmlns:xlink="http://www.w3.org/1999/xlink" x="0px" y="0px"
	 viewBox="0 0 353.9 353.2" style="enable-background:new 0 0 353.9 353.2;" xml:space="preserve" width="0" height="0">
<path d="M348.9,328.8l-73.7-74.2c22.5-26.8,35.9-61.7,35.9-99.1C311.1,69.9,241.2,0,155.6,0S0,69.9,0,155.6s69.9,155.6,155.6,155.6
	c37.8,0,72.3-13.4,99.1-35.9l74.2,73.7c2.9,2.9,6.7,4.3,10.1,4.3c3.4,0,7.2-1.4,10.1-4.3C354.7,343.7,354.7,334.1,348.9,328.8z
	 M28.7,155.6c0-69.9,57-126.8,126.8-126.8s126.8,57,126.8,126.8s-57,126.8-126.8,126.8S28.7,225.4,28.7,155.6z"/>
</svg>
