<?xml version="1.0" encoding="utf-8"?>
<!-- Generator: Adobe Illustrator 22.1.0, SVG Export Plug-In . SVG Version: 6.00 Build 0)  -->
<svg version="1.1" id="Слой_1" xmlns="http://www.w3.org/2000/svg" xmlns:xlink="http://www.w3.org/1999/xlink" x="0px" y="0px"
	 viewBox="0 0 376 380.8" style="enable-background:new 0 0 376 380.8;" xml:space="preserve">
<g>
	<path d="M259.3,223.9c-3.2,0.2-6.2,1.6-8.2,4c-16,17.8-38.9,28-63,28c-24.2,0-47.2-10.2-63-28c-4.5-4.9-12.1-5.3-16.9-0.9
		c-2.4,2.1-3.8,5.1-4,8.3c-0.2,3.2,0.9,6.3,3.1,8.7c20.5,22.9,50,36,81,36c30.9,0,60.5-13.1,81-36l0.1-0.1c4.2-5,3.7-12.4-1.2-16.8
		C265.6,224.9,262.5,223.8,259.3,223.9z"/>
	<path d="M188,0C84.3,0,0,84.3,0,188c0,103.7,84.3,188,188,188c103.7,0,188-84.3,188-188C376,84.3,291.7,0,188,0z M352,188
		c0,90.4-73.6,164-164,164S24,278.4,24,188S97.6,24,188,24S352,97.6,352,188z"/>
	<path d="M252,128c-24.3,0-44,19.7-44,44c0,6.6,5.4,12,12,12c6.6,0,12-5.4,12-12c0-11,9-20,20-20s20,9,20,20c0,6.6,5.4,12,12,12
		s12-5.4,12-12C296,147.7,276.3,128,252,128z"/>
	<path d="M124,152c11,0,20,9,20,20c0,6.6,5.4,12,12,12s12-5.4,12-12c0-24.3-19.7-44-44-44s-44,19.7-44,44c0,6.6,5.4,12,12,12
		s12-5.4,12-12C104,161,113,152,124,152z"/>
</g>
</svg>
