<svg xmlns="http://www.w3.org/2000/svg" xmlns:xlink="http://www.w3.org/1999/xlink" version="1.1" id="Layer_1" x="0px" y="0px" viewBox="0 2 98 98" style="enable-background:new 0 2 98 98;" xml:space="preserve" width="0" height="0">
<g>

	<path d="M82.6,12.4h-24c-1.7-3.6-5.4-6-9.5-6c-4.1,0-7.7,2.4-9.5,6H15.4c-1.7,0-3,1.3-3,3v77.3c0,1.7,1.3,3,3,3h67.1   c1.7,0,3-1.3,3-3V15.4C85.6,13.6,84.2,12.4,82.6,12.4z M38.3,18.4h3.4c1.4,0,2.6-1,2.9-2.3c0.4-1.8,2-3.7,4.5-3.7   c2.2,0,4,1.5,4.5,3.6c0.3,1.4,1.5,2.4,2.9,2.4h3.4v5.6H38.3V18.4z M18.4,89.5V18.4h13.8v8.6c0,1.7,1.3,3,3,3h27.6c1.7,0,3-1.3,3-3   v-8.6h13.7v71.2H18.4z"/>

	<path d="M40.3,39.2H28.6c-1.7,0-3,1.3-3,3v11.7c0,1.7,1.3,3,3,3h11.7c1.7,0,3-1.3,3-3V42.2   C43.3,40.5,41.9,39.2,40.3,39.2z M37.3,50.9h-5.7v-5.7h5.7V50.9z"/>

	<path d="M67.6,45H52.3c-1.7,0-3,1.3-3,3c0,1.7,1.3,3,3,3h15.3c1.7,0,3-1.3,3-3C70.6,46.4,69.3,45,67.6,45z"/>

	<path d="M40.3,63.2H28.6c-1.7,0-3,1.3-3,3v11.7c0,1.7,1.3,3,3,3h11.7c1.7,0,3-1.3,3-3V66.2   C43.3,64.5,41.9,63.2,40.3,63.2z M37.3,74.9h-5.7v-5.7h5.7V74.9z"/>

	<path  d="M67.6,69H52.3c-1.7,0-3,1.3-3,3c0,1.7,1.3,3,3,3h15.3c1.7,0,3-1.3,3-3C70.6,70.4,69.2,69,67.6,69z"/>
</g>
</svg>
