<svg version="1.1" id="Layer_1" x="0px" y="0px" viewBox="0 2 98 98" width="20px" height="20px">
<path d="M83.3,20.1c-4.8-4.8-11.3-7.5-18.2-7.5c-5.9,0-11.5,2-16.1,5.6c-4.6-3.6-10.2-5.6-16.1-5.6  c-6.9,0-13.4,2.7-18.2,7.5c-10,10-10,26.3,0,36.3l32.1,32.1c0.6,0.6,1.4,0.9,2.1,0.9c0.8,0,1.5-0.3,2.1-0.9l32.1-32  c4.8-4.9,7.5-11.4,7.5-18.2C90.7,31.4,88.1,25,83.3,20.1z M79,52.3L49,82.2l-30-30c-7.7-7.7-7.7-20.2,0-27.9c3.7-3.7,8.7-5.7,14-5.7  c5.2,0,10.2,2,14,5.7c1.2,1.1,3.1,1.1,4.2,0c3.7-3.7,8.6-5.7,13.9-5.7s10.2,2,13.9,5.7c3.6,3.7,5.6,8.7,5.6,14  C84.7,43.5,82.7,48.5,79,52.3z"/>
</svg>
