<svg xmlns="http://www.w3.org/2000/svg" xmlns:xlink="http://www.w3.org/1999/xlink" version="1.1" id="Layer_1" x="0px" y="0px" viewBox="0 2 98 98" style="enable-background:new 0 2 98 98;" xml:space="preserve" width="0" height="0">
<path class="st0" d="M93.2,38.1h-6.8V16.5c0-1.7-1.3-3-3-3H70c-1.7,0-3,1.3-3,3v3L14.5,36.1H7.8c-3.4,0-6,2.6-6,6V57  c0,3.4,2.6,6,6,6h6.7l4.6,1.5l-3.5,11.1c-0.2,0.8-0.2,1.6,0.2,2.3c0.4,0.7,1,1.2,1.8,1.5l28.8,9c0.3,0.1,0.6,0.1,0.9,0.1  c1.3,0,2.5-0.8,2.9-2.1l3.5-11L67,79.6v3c0,1.7,1.3,3,3,3h13.4c1.7,0,3-1.3,3-3V61h6.8c1.7,0,3-1.3,3-3V41.1  C96.2,39.4,94.9,38.1,93.2,38.1z M7.8,42.1h4.3V57H7.8V42.1z M45.3,81.7l-23.1-7.2l2.6-8.3l23,7.3L45.3,81.7z M18.1,57.8V41.3  L67,25.8v47.5L18.1,57.8z M80.4,79.6H73V19.5h7.4V79.6z M90.2,55h-3.8V44.1h3.8V55z"/>
</svg>
