<svg version="1.1" id="Capa_1" xmlns="http://www.w3.org/2000/svg" xmlns:xlink="http://www.w3.org/1999/xlink" x="0px" y="0px"
	 viewBox="0 0 418.8 458.8" style="enable-background:new 0 0 418.8 458.8;" xml:space="preserve" width="0" height="0">
<path d="M415.4,439.2l-33.1-308.4c-0.8-7.3-7.3-13.1-14.8-13.1h-56.4v-13.9C311.1,48.3,265.8,3,210.2,3S109.4,48.3,109.4,103.9v13.9
	H51.3c-7.5,0-13.9,5.8-14.8,13.1L3.4,439.2c-0.7,3.7,0.4,7.7,3.2,11.3c2.5,3.3,6.6,5.2,11,5.2h383.5c4.4,0,8.6-1.9,11-5.2
	C414.8,447,415.9,443,415.4,439.2z M295.9,176.4c5.9,0,10.8,4.8,10.8,10.8c0,5.9-4.8,10.8-10.8,10.8s-10.8-4.8-10.8-10.8
	C285.2,181.3,290,176.4,295.9,176.4z M138.9,103.9c0-39.3,32-71.3,71.3-71.3s71.3,32,71.3,71.3v13.9H138.9V103.9z M124.3,176.4
	c5.9,0,10.8,4.8,10.8,10.8c0,5.9-4.8,10.8-10.8,10.8s-10.8-4.8-10.8-10.8C113.5,181.3,118.4,176.4,124.3,176.4z M34.6,425.7
	l29.9-279h45V157c-11.3,5.4-18.8,17-18.8,29.7c0,18.2,14.8,33,33,33s33-14.8,33-33c0-12.8-7.5-24.3-18.8-29.7v-10.2h142.7V157
	c-11.3,5.4-18.8,17-18.8,29.7c0,18.2,14.8,33,33,33c18.2,0,33-14.8,33-33c0-12.8-7.5-24.3-18.8-29.7v-10.2h47.2l29.9,279H34.6z"/>
</svg>
