<svg width="29" height="25" viewBox="0 0 29 25" fill="none" xmlns="http://www.w3.org/2000/svg">
<path d="M10.2662 24.6537C11.891 24.6537 13.2082 23.4268 13.2082 21.9133C13.2082 20.3999 11.891 19.173 10.2662 19.173C8.64135 19.173 7.32417 20.3999 7.32417 21.9133C7.32417 23.4268 8.64135 24.6537 10.2662 24.6537Z" fill="white"/>
<path d="M28.3891 4.046C28.2714 3.9364 28.1537 3.82675 27.9184 3.82675H5.55895L4.97053 0.976776C4.85286 0.757527 4.61748 0.53833 4.3821 0.53833H0.851674C0.498686 0.538279 0.263306 0.757527 0.263306 1.08637C0.263306 1.41522 0.498686 1.63447 0.851729 1.63447H3.91145L6.7358 15.0076C7.2065 16.7614 8.85406 18.0768 10.8547 18.0768H24.3879C24.741 18.0768 24.9764 17.8576 24.9764 17.5287C24.9764 17.1999 24.741 16.9806 24.3879 16.9806H10.8546C9.91313 16.9806 8.97172 16.5422 8.50096 15.7748L25.6824 13.5826C25.9178 13.5826 26.1531 13.3633 26.1531 13.1441L28.5067 4.37485C28.5067 4.37485 28.5067 4.1556 28.3891 4.046Z" fill="white"/>
<path d="M22.0343 24.6537C23.6591 24.6537 24.9763 23.4268 24.9763 21.9133C24.9763 20.3999 23.6591 19.173 22.0343 19.173C20.4095 19.173 19.0923 20.3999 19.0923 21.9133C19.0923 23.4268 20.4095 24.6537 22.0343 24.6537Z" fill="white"/>
</svg>
