<svg width="132" height="132" viewBox="0 0 132 132" fill="none" xmlns="http://www.w3.org/2000/svg">
<g filter="url(#filter0_d)">
<circle cx="66" cy="64" r="56" fill="url(#paint0_linear)"/>
</g>
<path d="M33.0792 87.8219C33.0792 86.7232 33.8815 85.7979 34.9703 85.663C35.104 85.6437 35.2377 85.6244 35.3714 85.6052C36.4411 85.4702 37.2625 84.5257 37.2625 83.4463V51.179C37.2625 49.7911 36.0018 48.7503 34.6646 49.0394C34.5309 49.0779 34.3781 49.0972 34.2444 49.1358C33.0792 49.3671 31.9713 48.6732 31.6657 47.5359C31.4746 46.8034 31.2836 46.071 31.0735 45.2999C30.787 44.2205 31.36 43.0832 32.4106 42.6977C38.1985 40.5003 43.9099 38.3222 49.6405 36.1633C54.7025 34.2357 59.7644 32.2889 64.8646 30.477C65.9725 30.0915 67.4052 29.8024 68.4367 30.1686C79.4202 34.2165 90.3465 38.3993 101.597 42.6592C102.629 43.0447 103.202 44.1434 102.935 45.2228C102.763 45.9746 102.572 46.707 102.4 47.4588C102.132 48.5961 101.024 49.3093 99.8974 49.0972C99.7254 49.0587 99.5726 49.0394 99.4007 49.0008C98.0636 48.7503 96.8411 49.7719 96.8411 51.1404V83.3885C96.8411 84.5065 97.6815 85.451 98.7895 85.5666C98.8468 85.5666 98.9041 85.5859 98.9614 85.5859C100.069 85.7015 100.91 86.6461 100.91 87.764V87.8219C100.91 89.0362 99.9356 90 98.7513 90H35.2377C34.0534 90 33.0792 89.0169 33.0792 87.8219ZM91.2824 85.3739C91.4926 84.9305 91.6836 84.7378 91.6836 84.5257C91.7218 73.2302 91.7218 61.9348 91.8173 50.6393C91.8364 48.4419 90.6521 48.2684 88.952 48.2684C74.4155 48.3069 59.86 48.3455 45.3235 48.2298C42.8211 48.2105 42.2099 49.1358 42.229 51.4874C42.3436 59.9879 42.2672 68.4885 42.2672 76.989C42.2672 79.7454 42.2672 82.5018 42.2672 85.3546C58.9813 85.3739 75.1796 85.3739 91.2824 85.3739Z" fill="#F4F4F4"/>
<path d="M49 57.5016C56.5447 58.7541 63.0379 60.946 66.3951 68.8525C71.4495 55.1532 74.6408 52.746 87 53.02C85.7825 61.083 78.0165 69.0677 70.9146 68.8329C72.2058 66.9541 73.165 65.2906 74.3641 63.862C75.5631 62.4334 76.9835 61.2004 78.9204 59.2629C71.7447 62.3355 67.7971 66.6019 68.4796 74.5279C68.6825 77.0133 68.5718 77.4439 68.5718 77.4439C68.5718 77.4439 68.867 77.4243 69.9738 77.5809C73.5893 77.7962 77.832 79.2444 78.7728 84C71.3204 83.589 63.9233 83.178 56.4524 82.7475C58.2786 78.853 60.4553 77.4439 64.6981 77.2873C66.9117 70.9074 63.8311 65.819 57.3563 64.6253C59.2379 66.6606 61.3223 68.9112 63.8311 71.651C56.2126 72.5513 51.3243 67.6195 49 57.5016Z" fill="#F4F4F4"/>
<defs>
<filter id="filter0_d" x="0" y="0" width="132" height="132" filterUnits="userSpaceOnUse" color-interpolation-filters="sRGB">
<feFlood flood-opacity="0" result="BackgroundImageFix"/>
<feColorMatrix in="SourceAlpha" type="matrix" values="0 0 0 0 0 0 0 0 0 0 0 0 0 0 0 0 0 0 127 0"/>
<feOffset dy="2"/>
<feGaussianBlur stdDeviation="5"/>
<feColorMatrix type="matrix" values="0 0 0 0 0 0 0 0 0 0 0 0 0 0 0 0 0 0 0.25 0"/>
<feBlend mode="normal" in2="BackgroundImageFix" result="effect1_dropShadow"/>
<feBlend mode="normal" in="SourceGraphic" in2="effect1_dropShadow" result="shape"/>
</filter>
<linearGradient id="paint0_linear" x1="10" y1="8" x2="122" y2="120" gradientUnits="userSpaceOnUse">
<stop stop-color="#2DC968"/>
<stop offset="1" stop-color="#108D83"/>
</linearGradient>
</defs>
</svg>
