<svg width="31" height="31" viewBox="0 0 31 31" fill="none" xmlns="http://www.w3.org/2000/svg">
<path d="M0.128174 28.7338C0.128174 19.9469 0.128174 11.16 0.128174 2.37314C0.470243 1.21866 1.21852 0.449003 2.39438 0.106934C11.1813 0.106934 19.9682 0.106934 28.7551 0.106934C29.9096 0.449003 30.6578 1.19728 31.0213 2.37314C31.0213 11.2028 31.0213 20.0324 31.0213 28.8621C30.6151 29.9311 29.8882 30.6793 28.7551 31C26.2537 31 23.7737 31 21.2723 31C21.2723 27.1304 21.2937 23.2821 21.2723 19.4125C21.2723 18.8993 21.422 18.7283 21.9351 18.7497C23.1323 18.7924 24.3509 18.7497 25.5482 18.7711C26.0399 18.7711 26.2109 18.6428 26.1896 18.1297C26.1682 17.018 26.1468 15.9062 26.1896 14.8159C26.2109 14.3028 26.0399 14.1318 25.5268 14.1318C24.2868 14.1531 23.0254 14.1318 21.7854 14.1531C21.422 14.1531 21.2296 14.0676 21.2723 13.6614C21.3151 12.8918 21.3151 12.1221 21.3792 11.3525C21.4647 10.2835 22.1275 9.66349 23.1323 9.44969C23.8378 9.30004 24.5861 9.32142 25.313 9.27866C25.5909 9.25728 25.8475 9.27866 26.1896 9.27866C26.1896 7.889 26.1682 6.56349 26.2109 5.25935C26.2323 4.76762 26.0185 4.63935 25.5909 4.63935C24.4792 4.68211 23.3675 4.63935 22.2771 4.76762C19.2413 5.06693 17.4882 6.49935 16.7613 9.47107C16.4406 10.7538 16.3764 12.1221 16.3123 13.469C16.2696 14.0462 16.1199 14.2173 15.564 14.1959C14.9013 14.1531 14.2171 14.1959 13.5544 14.1745C13.1696 14.1745 12.9771 14.2814 12.9771 14.709C12.9985 15.9062 12.9985 17.0821 12.9771 18.2793C12.9771 18.6642 13.1268 18.8138 13.5116 18.8138C14.1744 18.7924 14.8585 18.8138 15.5213 18.8138C16.2909 18.8138 16.2909 18.8138 16.2909 19.5835C16.2909 23.4104 16.3123 27.2159 16.3123 31.0428C11.673 31.0428 7.05507 31.0428 2.41576 31.0428C1.21852 30.658 0.470243 29.9097 0.128174 28.7338Z" fill="url(#paint0_linear)"/>
<defs>
<linearGradient id="paint0_linear" x1="15.5747" y1="0.106934" x2="15.5747" y2="31.0428" gradientUnits="userSpaceOnUse">
<stop stop-color="#2DC968"/>
<stop offset="1" stop-color="#108D83"/>
</linearGradient>
</defs>
</svg>
