<svg width="132" height="132" viewBox="0 0 132 132" fill="none" xmlns="http://www.w3.org/2000/svg">
<g filter="url(#filter0_d)">
<circle cx="66" cy="64" r="56" fill="url(#paint0_linear)"/>
</g>
<g clip-path="url(#clip0)">
<path d="M43.4564 55.5382V85.1281C43.4564 86.453 44.5542 87.5306 45.9039 87.5306H59.9415C61.2913 87.5306 62.3891 86.453 62.3891 85.1281V58.2234C63.9008 57.4638 65.2326 56.7925 66.8343 55.9975V75.6593C66.8343 76.7369 67.7341 77.5849 68.832 77.5319C68.9399 77.5319 69.0659 77.5319 69.1739 77.5319C75.8507 77.5496 82.5276 77.4789 89.1864 77.5849C91.1121 77.6202 91.472 76.9136 91.454 75.2C91.364 69.2997 91.436 63.3994 91.472 57.4991C91.472 56.9515 91.436 56.4392 91.436 55.6089C92.7498 56.3155 94.0816 56.9868 95.1254 57.7111C95.5393 57.9937 95.8453 58.7357 95.8453 59.2657C95.8813 68.6991 95.8992 78.1149 95.8453 87.5483C95.8273 90.2335 93.9736 92 91.2381 92C75.3288 92.0354 59.4196 92.0354 43.4924 92C40.7748 92 39.0831 90.3395 39.0651 87.6896C39.0291 78.1855 39.0291 68.6814 39.0831 59.195C39.0831 58.6297 39.551 57.9054 40.037 57.5344C41.0268 56.7925 42.1426 56.2802 43.4564 55.5382Z" fill="white"/>
<path d="M66.0602 44.4446C66.0602 46.6705 66.1322 48.8963 66.0422 51.1045C65.9342 53.719 63.9185 55.4503 61.255 55.3443C58.6275 55.2383 56.5578 53.3304 56.7738 50.7689C57.1697 46.2818 57.7996 41.7948 58.4475 37.3254V37.3077C58.5555 36.5834 59.2034 36.0358 59.9592 36.0358L64.5844 36.0534C65.4123 36.0534 66.0962 36.7247 66.0962 37.5373L66.0782 41.8478" fill="white"/>
<path d="M46.6057 36.0707C44.986 41.7237 43.5462 47.0587 41.9085 52.323C41.0987 54.9376 38.2731 56.0328 35.6276 55.0259C33.252 54.1249 32.3702 51.8107 33.432 49.1962C34.9977 45.3275 36.6174 41.494 38.1652 37.6253C38.5791 36.5653 39.047 36.053 40.3788 36.053C42.3404 36.0353 44.3201 36.0707 46.6057 36.0707Z" fill="white"/>
<path d="M55.1721 36.0883C55.856 36.0883 56.3779 36.6713 56.2879 37.3426C55.766 40.9287 55.2621 44.2852 54.7582 47.6416C54.5602 48.9842 54.3803 50.3445 54.0923 51.6871C53.5164 54.3899 51.0868 55.8385 48.2793 55.2202C45.4538 54.6019 44.392 51.9344 45.3458 48.8076C46.4796 45.1331 47.3975 41.8827 48.1354 38.3142C48.4773 36.6536 48.9272 36.0177 50.349 36.0707C51.9327 36.106 53.4984 36.0883 55.1721 36.0883Z" fill="white"/>
<path d="M78.568 37.4133C78.46 36.7243 78.9999 36.106 79.7198 36.106C81.6814 36.0883 83.4631 36.053 85.2268 36.1767C85.7127 36.212 86.3786 37.007 86.5406 37.5723C87.7104 41.653 88.8082 45.7514 89.834 49.8499C90.4819 52.429 89.1321 54.6196 86.7206 55.1672C83.8591 55.8208 81.4475 54.4782 80.7636 51.8284C80.6916 51.5458 80.6556 51.2631 80.6016 50.9805C79.9537 46.5641 79.2879 42.1476 78.568 37.4133Z" fill="white"/>
<path d="M88.2505 36.0883C90.7521 36.0883 92.8577 36 94.9633 36.1413C95.5032 36.1767 96.2591 36.8126 96.4751 37.3426C98.3107 41.5647 100.074 45.8221 101.784 50.1148C102.504 51.9344 101.262 54.2132 99.2826 55.0082C96.979 55.9445 93.8295 55.0259 93.1096 52.8C91.3639 47.412 89.9242 41.9356 88.2505 36.0883Z" fill="white"/>
<path d="M68.5077 37.6076C68.5077 37.5899 68.5077 37.5899 68.5077 37.5722C68.4897 36.742 69.1736 36.0707 70.0194 36.053L74.8066 36C75.5804 35.9823 76.2283 36.5476 76.3363 37.2896L76.9662 41.6883C76.9662 41.6883 77.7221 47.253 78.028 50.0265C78.352 52.9767 76.6962 55.0612 73.9067 55.3262C71.0272 55.6088 68.8496 53.7363 68.6696 50.7685C68.5977 49.6909 68.6157 48.6133 68.6157 47.5357C68.6157 46.4581 68.6157 45.3804 68.6157 44.3028" fill="white"/>
<path d="M59.2212 75.359H58.2494C57.9614 75.359 57.7095 75.1293 57.7095 74.829V66.7735C57.7095 66.4908 57.9614 66.2435 58.2494 66.2435H59.2212C59.5272 66.2435 59.7611 66.4908 59.7611 66.7735V74.829C59.7611 75.1117 59.5272 75.359 59.2212 75.359Z" fill="white"/>
</g>
<defs>
<filter id="filter0_d" x="0" y="0" width="132" height="132" filterUnits="userSpaceOnUse" color-interpolation-filters="sRGB">
<feFlood flood-opacity="0" result="BackgroundImageFix"/>
<feColorMatrix in="SourceAlpha" type="matrix" values="0 0 0 0 0 0 0 0 0 0 0 0 0 0 0 0 0 0 127 0"/>
<feOffset dy="2"/>
<feGaussianBlur stdDeviation="5"/>
<feColorMatrix type="matrix" values="0 0 0 0 0 0 0 0 0 0 0 0 0 0 0 0 0 0 0.25 0"/>
<feBlend mode="normal" in2="BackgroundImageFix" result="effect1_dropShadow"/>
<feBlend mode="normal" in="SourceGraphic" in2="effect1_dropShadow" result="shape"/>
</filter>
<linearGradient id="paint0_linear" x1="10" y1="8" x2="122" y2="120" gradientUnits="userSpaceOnUse">
<stop stop-color="#2DC968"/>
<stop offset="1" stop-color="#108D83"/>
</linearGradient>
<clipPath id="clip0">
<rect width="69" height="56" fill="white" transform="translate(33 36)"/>
</clipPath>
</defs>
</svg>
