<svg width="58" height="75" viewBox="0 0 58 75" fill="none" xmlns="http://www.w3.org/2000/svg">
<path d="M58 58.3473H17.5515C7.85806 58.3473 0 50.4422 0 40.6907V0H40.4485C50.1419 0 58 7.90511 58 17.6565V58.3473Z" fill="#F4F4F4"/>
<path d="M16.3131 22.7251H10.9719V45.4814H16.3131V22.7251Z" fill="#2B2B2B"/>
<path d="M16.3131 14.6899H10.9719V20.0631H16.3131V14.6899Z" fill="#2B2B2B"/>
<path d="M4.46796 62.9944V74.879H3.27856V62.9944H4.46796Z" fill="#F4F4F4"/>
<path d="M15.7472 63.9042C16.6737 64.5764 17.3108 65.4951 17.6582 66.6513H16.4332C16.1303 65.8536 15.6224 65.2083 14.9008 64.7109C14.1791 64.2179 13.3283 63.967 12.3438 63.967C11.4929 63.967 10.7267 64.1686 10.0407 64.572C9.35468 64.9753 8.81567 65.5578 8.42366 66.3107C8.03164 67.0636 7.83564 67.9419 7.83564 68.9413C7.83564 69.963 8.0361 70.8503 8.43257 71.6032C8.82903 72.3561 9.37696 72.9342 10.0763 73.342C10.7757 73.7453 11.5687 73.9469 12.4641 73.9469C13.257 73.9469 13.9831 73.7677 14.6424 73.4137C15.3017 73.0596 15.8363 72.5443 16.2416 71.8721C16.6515 71.1999 16.8876 70.4067 16.9544 69.497H12.0409V68.6097H17.9745V69.6538C17.8943 70.6666 17.6137 71.5763 17.1281 72.3829C16.6425 73.1941 15.9877 73.8304 15.168 74.2965C14.3484 74.7626 13.4129 74.9956 12.3616 74.9956C11.2435 74.9956 10.2501 74.7401 9.37696 74.2293C8.50384 73.7184 7.83118 73.0014 7.35008 72.0782C6.86897 71.1551 6.62842 70.1109 6.62842 68.9413C6.62842 67.7716 6.86897 66.7275 7.35008 65.8043C7.83118 64.8812 8.50384 64.1641 9.36805 63.6533C10.2323 63.1424 11.2257 62.887 12.3438 62.887C13.6846 62.8914 14.8206 63.232 15.7472 63.9042Z" fill="#F4F4F4"/>
<path d="M22.6029 66.0463C23.1954 65.6878 23.917 65.5085 24.7634 65.5085V66.7902H24.3759C23.4938 66.7902 22.7633 67.0277 22.1797 67.5072C21.6006 67.9867 21.3066 68.762 21.3066 69.842V74.8835H20.1172V65.6788H21.3066V67.5834C21.5783 66.9157 22.0104 66.4048 22.6029 66.0463Z" fill="#F4F4F4"/>
<path d="M32.3901 73.3958C32.9469 72.979 33.2855 72.4188 33.3968 71.7108H34.6352C34.466 72.6877 34.0027 73.4809 33.2454 74.0859C32.4836 74.6909 31.5259 74.9956 30.3632 74.9956C29.4901 74.9956 28.7194 74.8074 28.0423 74.4309C27.3652 74.0545 26.8395 73.5078 26.4564 72.7953C26.0778 72.0827 25.8862 71.2402 25.8862 70.2767C25.8862 69.3088 26.0778 68.4707 26.4564 67.7582C26.8351 67.0457 27.3652 66.4989 28.0423 66.1225C28.7194 65.7461 29.4901 65.5579 30.3632 65.5579C31.2586 65.5579 32.0292 65.7461 32.6841 66.1225C33.3389 66.4989 33.8334 67.0009 34.1764 67.6327C34.515 68.2601 34.6887 68.9458 34.6887 69.6897C34.6887 70.0034 34.6664 70.2902 34.6219 70.5501H27.0444C27.0534 71.3254 27.2137 71.9752 27.5211 72.4995C27.8285 73.0238 28.2294 73.4092 28.7194 73.6557C29.2094 73.9021 29.744 74.0276 30.3097 74.0276C31.1383 74.0231 31.8288 73.8125 32.3901 73.3958ZM28.7372 66.8888C28.2472 67.1353 27.8463 67.5162 27.5389 68.0271C27.2315 68.538 27.0667 69.1743 27.0444 69.9406H33.5127C33.5572 69.1878 33.4325 68.5514 33.1429 68.036C32.8534 67.5207 32.4613 67.1353 31.9713 66.8888C31.4813 66.6423 30.9423 66.5169 30.3632 66.5169C29.7707 66.5169 29.2272 66.6423 28.7372 66.8888Z" fill="#F4F4F4"/>
<path d="M42.8627 73.3958C43.4196 72.979 43.7581 72.4188 43.8695 71.7108H45.1079C44.9386 72.6877 44.4753 73.4809 43.718 74.0859C42.9563 74.6909 41.9985 74.9956 40.8359 74.9956C39.9627 74.9956 39.1921 74.8074 38.515 74.4309C37.8378 74.0545 37.3122 73.5078 36.9291 72.7953C36.5504 72.0827 36.3589 71.2402 36.3589 70.2767C36.3589 69.3088 36.5504 68.4707 36.9291 67.7582C37.3077 67.0457 37.8378 66.4989 38.515 66.1225C39.1921 65.7461 39.9627 65.5579 40.8359 65.5579C41.7313 65.5579 42.5019 65.7461 43.1568 66.1225C43.8116 66.4989 44.3061 67.0009 44.6491 67.6327C44.9876 68.2601 45.1614 68.9458 45.1614 69.6897C45.1614 70.0034 45.1391 70.2902 45.0945 70.5501H37.5171C37.526 71.3254 37.6864 71.9752 37.9938 72.4995C38.3011 73.0238 38.7021 73.4092 39.1921 73.6557C39.6821 73.9021 40.2167 74.0276 40.7824 74.0276C41.611 74.0231 42.3059 73.8125 42.8627 73.3958ZM39.2099 66.8888C38.7199 67.1353 38.319 67.5162 38.0116 68.0271C37.7042 68.538 37.5394 69.1743 37.5171 69.9406H43.9853C44.0299 69.1878 43.9051 68.5514 43.6156 68.036C43.326 67.5207 42.934 67.1353 42.444 66.8888C41.954 66.6423 41.415 66.5169 40.8359 66.5169C40.2434 66.5169 39.6999 66.6423 39.2099 66.8888Z" fill="#F4F4F4"/>
<path d="M54.4361 66.5257C55.0998 67.2069 55.4339 68.2018 55.4339 69.5193V74.879H54.2757V69.6C54.2757 68.6006 54.0263 67.8343 53.5229 67.2965C53.0195 66.7633 52.3335 66.4944 51.4604 66.4944C50.5427 66.4944 49.8166 66.7901 49.2731 67.3817C48.7296 67.9732 48.4624 68.8381 48.4624 69.9854V74.8745H47.2729V65.6698H48.4624V67.9284C48.6985 67.1397 49.1216 66.5392 49.7364 66.1224C50.3511 65.7057 51.055 65.4995 51.8479 65.4995C52.9081 65.5085 53.7723 65.8491 54.4361 66.5257Z" fill="#F4F4F4"/>
<path d="M25.1779 26.5388C25.4318 26.8256 25.6724 27.1259 25.9441 27.3947C26.9553 28.3941 27.9933 29.3665 28.9911 30.3793C30.1449 31.549 30.969 32.9337 31.5748 34.4618C32.7063 37.3209 32.9068 40.31 32.7821 43.3394C32.7643 43.7114 32.7687 44.0833 32.7509 44.4553C32.7375 44.8048 32.6306 45.0782 32.2475 45.2037C31.8644 45.3246 31.6907 45.0737 31.5481 44.8272C31.165 44.1729 30.6082 43.7562 29.8643 43.7651C29.2718 43.7696 28.6704 43.9175 28.0957 44.0833C27.1202 44.3656 26.1223 44.6256 25.1378 44.4194C24.3449 44.2536 23.5208 43.9309 22.8615 43.4649C21.2801 42.3401 20.3223 40.7447 19.9303 38.8267C19.8368 38.3651 20.0818 38.0693 20.3981 38.2755C21.7656 39.1807 23.2223 38.8222 24.6701 38.634C25.9085 38.4682 27.138 38.513 28.2205 39.1628C28.8798 39.5571 29.4232 40.1621 29.9756 40.7178C30.2652 41.0091 30.4745 41.3855 30.6839 41.7485C30.7552 41.8695 30.7151 42.0533 30.724 42.2101C30.5725 42.1698 30.4077 42.1563 30.2785 42.0846C29.4277 41.623 28.6036 41.1167 27.7349 40.6954C27.3652 40.5162 26.9063 40.5117 26.4787 40.4669C27.5478 40.673 28.5056 41.1301 29.3609 41.7844C30.1805 42.4162 30.9601 43.1064 31.8555 43.8548C31.8243 43.2901 31.86 42.7792 31.7619 42.2953C31.4902 40.9105 30.6438 39.9515 29.4366 39.2748C28.1047 38.5264 26.7549 37.8049 25.4541 37.0028C22.9239 35.4388 21.4048 33.1891 20.9326 30.2001C20.7054 28.775 20.6074 27.3589 20.8034 25.9383C21.1331 23.5587 21.7523 21.2867 23.4183 19.4493C23.503 19.3597 23.6633 19.2432 23.7435 19.27C23.8371 19.3014 23.9306 19.4717 23.944 19.5927C24.1489 21.3539 25.169 22.6176 26.4653 23.6752C27.6859 24.6746 28.9689 25.5977 30.2162 26.5567C31.6951 27.6905 32.9647 29.017 33.7398 30.7378C34.3813 32.1584 34.5818 33.6776 34.5639 35.2326C34.5506 36.3709 34.4036 37.4912 34.0784 38.5847C34.0606 38.6429 34.0606 38.7146 34.0294 38.7639C33.9269 38.9073 33.8111 39.0418 33.7042 39.1762C33.624 39.0239 33.5082 38.8849 33.4725 38.7236C33.1964 37.3434 33.0226 35.9452 32.5148 34.6097C31.7664 32.6424 30.5503 31.047 28.9644 29.6982C27.824 28.7257 26.7282 27.6995 25.6145 26.6957C25.5076 26.6015 25.3962 26.5119 25.2893 26.4178C25.2537 26.4626 25.218 26.4985 25.1779 26.5388Z" fill="#2CA547"/>
<path d="M43.6738 34.3675C43.46 34.3451 43.2862 34.3093 43.1125 34.3093C40.9341 34.3048 38.7603 34.3048 36.5819 34.3048C35.9226 34.3048 35.8603 34.2286 35.8023 33.5609C35.6954 32.3196 35.4059 31.1141 34.9515 29.9534C34.8802 29.7697 34.7421 29.6128 34.6397 29.438C34.4437 29.1109 34.5862 28.9316 34.9159 28.8868C35.1742 28.8555 35.4415 28.8779 35.6999 28.8779C40.1457 28.8734 44.5914 28.8734 49.0372 28.8734C49.1931 28.8734 49.3446 28.8779 49.5005 28.8779C49.8925 28.8824 50.0796 29.0526 50.0885 29.4739C50.1375 31.9342 49.6386 34.269 48.6363 36.5186C47.8656 38.2439 46.801 39.7631 45.4735 41.0672C44.342 42.1786 43.0679 43.1286 41.6202 43.8456C39.9942 44.6478 38.3014 45.1856 36.524 45.4231C35.7667 45.5261 34.9827 45.4679 34.212 45.4589C33.9581 45.4544 33.7487 45.3424 33.9046 45.0063C34.5417 43.6619 34.7154 42.2234 34.7689 40.758C34.7867 40.1933 34.8713 40.0723 35.3925 40.0589C37.3437 40.0006 39.0454 39.2836 40.5956 38.1319C41.8518 37.1953 42.8853 36.0705 43.5624 34.6409C43.598 34.5692 43.6203 34.4975 43.6738 34.3675Z" fill="#2B2B2B"/>
<path d="M34.7735 14.4748C37.5131 14.4345 40.0256 15.2546 42.3732 16.5766C44.2887 17.6566 45.8924 19.1354 47.1664 20.9548C47.3624 21.2327 47.554 21.5105 47.7322 21.8018C47.8925 22.0662 47.8124 22.2634 47.5362 22.4068C46.7432 22.8281 45.9637 23.2583 45.1752 23.684C44.7119 23.9349 44.2397 24.1635 43.7942 24.4369C43.4067 24.6699 43.1661 24.5758 42.9122 24.2173C41.6382 22.4471 39.9855 21.1744 37.9319 20.444C36.4618 19.9197 34.9383 19.7718 33.4104 19.9824C31.4369 20.2558 29.6595 21.0579 28.136 22.3844C27.6638 22.7967 27.6059 22.7743 27.1337 22.3754C26.0334 21.4433 25.3607 20.2468 24.9197 18.8934C24.7148 18.266 24.7549 18.163 25.2761 17.7462C27.3431 16.0971 29.7174 15.1381 32.2833 14.6585C33.0985 14.5107 33.9449 14.5331 34.7735 14.4748Z" fill="#2B2B2B"/>
</svg>
