<svg width="132" height="132" viewBox="0 0 132 132" fill="none" xmlns="http://www.w3.org/2000/svg">
<g filter="url(#filter0_d)">
<circle cx="66" cy="64" r="56" fill="url(#paint0_linear)"/>
</g>
<path d="M54.3512 86.2431C60.0801 85.2196 65.9364 84.9638 71.6654 85.4755C74.9754 85.7314 78.1582 86.2431 81.3409 87.0107C83.6325 87.5224 86.0514 88.29 88.2157 89.4414C88.7249 88.5459 89.1068 87.5224 89.1068 86.371V83.0448C89.1068 82.5331 88.9795 82.0213 88.9795 81.6375C88.9795 81.1258 88.9795 80.6141 88.8522 80.1024C88.7249 79.5906 88.7249 78.823 88.5976 77.9275C73.3204 73.9616 58.4251 74.0896 43.1479 78.5672C43.1479 79.2068 43.0206 79.7186 42.8933 80.1024C42.766 80.6141 42.6387 81.2537 42.766 81.8934C42.6387 82.2772 42.6387 82.5331 42.6387 82.9169V86.2431C42.6387 87.2665 42.8933 88.29 43.4025 89.0576C44.2937 88.8017 45.0576 88.4179 45.9487 88.1621C48.7496 87.3945 51.5504 86.7548 54.3512 86.2431Z" fill="white"/>
<path d="M82.8688 89.0576C77.2671 87.7783 71.5382 87.1386 65.9365 87.1386C60.2076 87.1386 54.4786 87.6503 48.877 88.9297C47.2219 89.3135 45.6942 89.6972 44.1665 90.081C45.185 91.2324 46.7127 92 48.3677 92H83.378C84.9057 92 86.4334 91.3604 87.4519 90.3369C87.3246 90.3369 87.1973 90.209 87.1973 90.209C85.6696 89.8252 84.2692 89.4414 82.8688 89.0576Z" fill="white"/>
<path d="M91.5257 45.049C89.8706 43.7697 87.8337 42.8742 85.7967 42.4904C85.1602 42.2345 84.3963 42.2345 83.7598 42.1066C82.3593 43.258 81.2136 44.6652 80.3224 46.2004C80.4497 45.9446 80.3224 45.3049 80.4497 45.049C80.4497 44.6652 80.577 44.1535 80.7043 43.7697C80.9589 43.0021 81.3409 42.2345 81.7228 41.467C81.7228 41.467 81.7228 41.339 81.8501 41.339C79.1766 35.838 73.0657 32 66.0637 32C59.4435 32 53.7146 35.3262 50.7864 40.3156C51.1684 40.6994 51.423 41.0832 51.6776 41.5949C52.1869 42.3625 52.4415 43.1301 52.6961 43.8977C52.8234 44.2814 52.9507 44.7932 52.9507 45.177C52.9507 45.4328 52.9507 46.0725 53.078 46.3284C52.1869 44.5373 50.7864 43.0021 49.1314 41.8507C46.9671 42.7463 44.5483 42.6183 42.2567 43.7697C37.8008 46.2004 35 51.0618 35 56.0512C35 57.4584 35.2546 58.8657 35.6366 60.2729C35.6366 61.2964 38.0554 65.1343 39.0739 66.0299C39.5832 66.5416 40.0924 66.9254 40.729 67.3092C41.8747 68.3326 42.5113 69.6119 42.8932 71.6588C43.0205 69.8678 43.1478 68.0768 42.8932 66.2857C42.7659 65.2623 42.6386 64.2388 42.384 63.0874C42.1294 61.2964 41.7474 59.6333 41.2382 57.9701C41.8747 57.8422 42.384 58.3539 42.6386 58.8657C44.2936 61.2964 45.8214 64.3667 45.9487 67.565C46.076 69.9957 45.1848 72.2985 44.2936 74.4733C44.1663 74.6013 44.039 74.8571 44.039 74.9851C58.6797 71.1471 72.9384 70.8913 87.5791 74.4733C86.5606 72.2985 85.7967 69.9957 85.924 67.565C86.0513 64.4947 87.4517 61.4243 89.2341 58.8657C89.616 58.3539 89.9979 57.8422 90.6345 57.9701C90.2526 59.6333 89.8706 61.4243 89.4887 63.0874C89.2341 64.1109 89.1068 65.2623 88.9795 66.2857C88.8522 67.693 88.8522 69.2281 88.9795 70.6354C89.2341 69.3561 89.7433 68.7164 90.3799 68.0768C91.9076 67.1812 93.1807 66.0299 94.1992 64.6226C94.7084 64.1109 95.0903 63.5991 95.4723 63.0874C95.7269 62.5757 95.9815 62.064 95.9815 61.5522C96.7454 59.8891 97.1273 58.0981 97.1273 56.1791C97 51.8294 94.963 47.6077 91.5257 45.049Z" fill="white"/>
<defs>
<filter id="filter0_d" x="0" y="0" width="132" height="132" filterUnits="userSpaceOnUse" color-interpolation-filters="sRGB">
<feFlood flood-opacity="0" result="BackgroundImageFix"/>
<feColorMatrix in="SourceAlpha" type="matrix" values="0 0 0 0 0 0 0 0 0 0 0 0 0 0 0 0 0 0 127 0"/>
<feOffset dy="2"/>
<feGaussianBlur stdDeviation="5"/>
<feColorMatrix type="matrix" values="0 0 0 0 0 0 0 0 0 0 0 0 0 0 0 0 0 0 0.25 0"/>
<feBlend mode="normal" in2="BackgroundImageFix" result="effect1_dropShadow"/>
<feBlend mode="normal" in="SourceGraphic" in2="effect1_dropShadow" result="shape"/>
</filter>
<linearGradient id="paint0_linear" x1="10" y1="8" x2="122" y2="120" gradientUnits="userSpaceOnUse">
<stop stop-color="#2DC968"/>
<stop offset="1" stop-color="#108D83"/>
</linearGradient>
</defs>
</svg>
