<svg width="38" height="49" viewBox="0 0 38 49" fill="none" xmlns="http://www.w3.org/2000/svg">
<path d="M38 38.1202H11.4992C5.14839 38.1202 0 32.9555 0 26.5846V0H26.5008C32.8516 0 38 5.16467 38 11.5356V38.1202Z" fill="#F4F4F4"/>
<path d="M10.6879 14.8469H7.18848V29.7144H10.6879V14.8469Z" fill="#2B2B2B"/>
<path d="M10.6879 9.59735H7.18848V13.1078H10.6879V9.59735Z" fill="#2B2B2B"/>
<path d="M2.92721 41.1563V48.9209H2.14795V41.1563H2.92721Z" fill="#F4F4F4"/>
<path d="M10.3171 41.7507C10.9242 42.1898 11.3415 42.7901 11.5692 43.5454H10.7666C10.5681 43.0243 10.2354 42.6027 9.76259 42.2777C9.28978 41.9556 8.73233 41.7917 8.08732 41.7917C7.52987 41.7917 7.02787 41.9234 6.57841 42.1869C6.12895 42.4504 5.7758 42.831 5.51896 43.3229C5.26213 43.8148 5.13371 44.3886 5.13371 45.0415C5.13371 45.7091 5.26505 46.2888 5.5248 46.7807C5.78455 47.2725 6.14354 47.6502 6.60176 47.9167C7.05998 48.1802 7.57948 48.3119 8.16612 48.3119C8.68563 48.3119 9.16136 48.1948 9.59331 47.9635C10.0253 47.7322 10.3755 47.3955 10.6411 46.9563C10.9096 46.5172 11.0643 45.9989 11.1081 45.4046H7.88885V44.8249H11.7764V45.5071C11.7239 46.1688 11.54 46.7631 11.2219 47.2901C10.9038 47.82 10.4747 48.2358 9.9377 48.5403C9.40068 48.8448 8.78778 48.997 8.09899 48.997C7.36643 48.997 6.71558 48.8301 6.14354 48.4964C5.5715 48.1626 5.13079 47.6941 4.81558 47.091C4.50038 46.4879 4.34277 45.8057 4.34277 45.0415C4.34277 44.2774 4.50038 43.5952 4.81558 42.9921C5.13079 42.3889 5.5715 41.9205 6.1377 41.5867C6.70391 41.2529 7.35475 41.0861 8.08732 41.0861C8.96581 41.089 9.71005 41.3115 10.3171 41.7507Z" fill="#F4F4F4"/>
<path d="M14.8087 43.1502C15.1969 42.9159 15.6697 42.7988 16.2243 42.7988V43.6362H15.9703C15.3925 43.6362 14.9138 43.7914 14.5315 44.1046C14.1521 44.4179 13.9594 44.9244 13.9594 45.63V48.9238H13.1802V42.9101H13.9594V44.1544C14.1375 43.7182 14.4206 43.3844 14.8087 43.1502Z" fill="#F4F4F4"/>
<path d="M21.2209 47.9518C21.5857 47.6795 21.8075 47.3135 21.8805 46.8509H22.6918C22.5809 47.4892 22.2774 48.0074 21.7812 48.4026C21.2821 48.7979 20.6546 48.997 19.8929 48.997C19.3209 48.997 18.8159 48.874 18.3723 48.6281C17.9287 48.3821 17.5843 48.025 17.3333 47.5594C17.0852 47.0939 16.9597 46.5435 16.9597 45.914C16.9597 45.2816 17.0852 44.7341 17.3333 44.2686C17.5814 43.803 17.9287 43.4458 18.3723 43.1999C18.8159 42.954 19.3209 42.831 19.8929 42.831C20.4795 42.831 20.9844 42.954 21.4135 43.1999C21.8425 43.4458 22.1665 43.7738 22.3912 44.1866C22.613 44.5965 22.7268 45.0444 22.7268 45.5304C22.7268 45.7354 22.7123 45.9228 22.6831 46.0926H17.7185C17.7244 46.5991 17.8295 47.0236 18.0308 47.3662C18.2322 47.7087 18.4949 47.9605 18.8159 48.1216C19.137 48.2826 19.4872 48.3646 19.8579 48.3646C20.4007 48.3616 20.8531 48.224 21.2209 47.9518ZM18.8276 43.7006C18.5066 43.8616 18.2439 44.1105 18.0425 44.4442C17.8411 44.778 17.7331 45.1937 17.7185 45.6944H21.9563C21.9855 45.2025 21.9038 44.7868 21.7141 44.4501C21.5244 44.1134 21.2676 43.8616 20.9465 43.7006C20.6255 43.5395 20.2723 43.4575 19.8929 43.4575C19.5047 43.4575 19.1487 43.5395 18.8276 43.7006Z" fill="#F4F4F4"/>
<path d="M28.0824 47.9518C28.4473 47.6795 28.6691 47.3135 28.742 46.8509H29.5534C29.4425 47.4892 29.139 48.0074 28.6428 48.4026C28.1437 48.7979 27.5162 48.997 26.7545 48.997C26.1824 48.997 25.6775 48.874 25.2339 48.6281C24.7903 48.3821 24.4459 48.025 24.1949 47.5594C23.9468 47.0939 23.8213 46.5435 23.8213 45.914C23.8213 45.2816 23.9468 44.7341 24.1949 44.2686C24.4429 43.803 24.7903 43.4458 25.2339 43.1999C25.6775 42.954 26.1824 42.831 26.7545 42.831C27.3411 42.831 27.846 42.954 28.2751 43.1999C28.7041 43.4458 29.0281 43.7738 29.2528 44.1866C29.4746 44.5965 29.5884 45.0444 29.5884 45.5304C29.5884 45.7354 29.5738 45.9228 29.5447 46.0926H24.5801C24.586 46.5991 24.691 47.0236 24.8924 47.3662C25.0938 47.7087 25.3565 47.9605 25.6775 48.1216C25.9986 48.2826 26.3488 48.3646 26.7195 48.3646C27.2623 48.3616 27.7176 48.224 28.0824 47.9518ZM25.6892 43.7006C25.3681 43.8616 25.1055 44.1105 24.9041 44.4442C24.7027 44.778 24.5947 45.1937 24.5801 45.6944H28.8179C28.8471 45.2025 28.7654 44.7868 28.5757 44.4501C28.386 44.1134 28.1291 43.8616 27.8081 43.7006C27.487 43.5395 27.1339 43.4575 26.7545 43.4575C26.3663 43.4575 26.0102 43.5395 25.6892 43.7006Z" fill="#F4F4F4"/>
<path d="M35.665 43.4634C36.0999 43.9085 36.3188 44.5584 36.3188 45.4192V48.9209H35.56V45.4719C35.56 44.819 35.3965 44.3184 35.0667 43.967C34.7369 43.6186 34.2874 43.4429 33.7154 43.4429C33.1142 43.4429 32.6384 43.6362 32.2824 44.0227C31.9263 44.4091 31.7512 44.9742 31.7512 45.7237V48.918H30.9719V42.9042H31.7512V44.3798C31.9059 43.8646 32.1831 43.4722 32.5859 43.1999C32.9887 42.9276 33.4498 42.793 33.9693 42.793C34.6639 42.7988 35.2301 43.0213 35.665 43.4634Z" fill="#F4F4F4"/>
<path d="M16.496 17.3387C16.6623 17.526 16.8199 17.7222 16.998 17.8979C17.6605 18.5508 18.3405 19.1861 18.9943 19.8478C19.7502 20.612 20.2901 21.5167 20.6871 22.515C21.4284 24.383 21.5597 26.3358 21.478 28.315C21.4663 28.5581 21.4692 28.8011 21.4576 29.0441C21.4488 29.2724 21.3788 29.451 21.1278 29.533C20.8768 29.6121 20.7629 29.4481 20.6696 29.2871C20.4186 28.8596 20.0537 28.5873 19.5663 28.5932C19.1782 28.5961 18.7841 28.6927 18.4076 28.8011C17.7685 28.9855 17.1147 29.1553 16.4697 29.0207C15.9502 28.9123 15.4103 28.7015 14.9783 28.397C13.9422 27.6621 13.3147 26.6198 13.0579 25.3667C12.9966 25.0652 13.1571 24.8719 13.3643 25.0066C14.2603 25.598 15.2147 25.3638 16.1633 25.2408C16.9746 25.1325 17.7802 25.1618 18.4894 25.5863C18.9213 25.844 19.2774 26.2392 19.6393 26.6023C19.829 26.7926 19.9662 27.0385 20.1033 27.2757C20.15 27.3547 20.1238 27.4748 20.1296 27.5772C20.0304 27.5509 19.9224 27.5421 19.8378 27.4953C19.2803 27.1937 18.7404 26.8628 18.1712 26.5876C17.929 26.4705 17.6284 26.4676 17.3482 26.4383C18.0487 26.573 18.6762 26.8716 19.2365 27.2991C19.7735 27.7119 20.2843 28.1628 20.8709 28.6517C20.8505 28.2828 20.8739 27.9491 20.8096 27.6329C20.6316 26.7282 20.0771 26.1016 19.2861 25.6595C18.4135 25.1706 17.5292 24.6992 16.6769 24.1751C15.0192 23.1533 14.0239 21.6835 13.7146 19.7307C13.5657 18.7996 13.5015 17.8744 13.6299 16.9463C13.8459 15.3917 14.2516 13.9072 15.3431 12.7068C15.3986 12.6483 15.5037 12.5722 15.5562 12.5897C15.6175 12.6102 15.6788 12.7215 15.6875 12.8005C15.8218 13.9512 16.4901 14.7768 17.3394 15.4678C18.1391 16.1207 18.9797 16.7238 19.7969 17.3504C20.7659 18.0911 21.5977 18.9577 22.1055 20.082C22.5258 21.0101 22.6571 22.0027 22.6454 23.0186C22.6367 23.7623 22.5404 24.4942 22.3273 25.2086C22.3156 25.2467 22.3156 25.2935 22.2952 25.3257C22.2281 25.4194 22.1522 25.5073 22.0821 25.5951C22.0296 25.4956 21.9537 25.4048 21.9304 25.2994C21.7494 24.3976 21.6356 23.4841 21.3029 22.6117C20.8126 21.3263 20.0158 20.284 18.9768 19.4028C18.2296 18.7674 17.5116 18.097 16.782 17.4411C16.712 17.3796 16.639 17.3211 16.5689 17.2596C16.5456 17.2889 16.5222 17.3123 16.496 17.3387Z" fill="#2CA547"/>
<path d="M28.6138 22.4535C28.4737 22.4388 28.3599 22.4154 28.246 22.4154C26.8189 22.4125 25.3946 22.4125 23.9674 22.4125C23.5354 22.4125 23.4946 22.3627 23.4566 21.9265C23.3866 21.1155 23.1969 20.3279 22.8992 19.5696C22.8525 19.4495 22.762 19.347 22.6949 19.2329C22.5665 19.0191 22.6599 18.902 22.8758 18.8727C23.0451 18.8522 23.2202 18.8669 23.3895 18.8669C26.3023 18.864 29.215 18.864 32.1278 18.864C32.2299 18.864 32.3291 18.8669 32.4313 18.8669C32.6881 18.8698 32.8107 18.9811 32.8166 19.2563C32.8487 20.8637 32.5218 22.3891 31.8651 23.8588C31.3602 24.986 30.6626 25.9786 29.7929 26.8306C29.0516 27.5567 28.2169 28.1774 27.2683 28.6458C26.203 29.1699 25.094 29.5212 23.9295 29.6764C23.4333 29.7437 22.9196 29.7057 22.4147 29.6998C22.2483 29.6969 22.1112 29.6237 22.2133 29.4041C22.6307 28.5258 22.7445 27.5859 22.7795 26.6285C22.7912 26.2596 22.8467 26.1806 23.1881 26.1718C24.4665 26.1337 25.5814 25.6653 26.597 24.9128C27.4201 24.3009 28.0972 23.566 28.5408 22.6321C28.5642 22.5852 28.5788 22.5384 28.6138 22.4535Z" fill="#2B2B2B"/>
<path d="M22.7828 9.45686C24.5777 9.43051 26.2238 9.9663 27.7619 10.83C29.0169 11.5356 30.0676 12.5018 30.9023 13.6905C31.0307 13.872 31.1562 14.0535 31.2729 14.2438C31.378 14.4166 31.3255 14.5454 31.1445 14.6391C30.625 14.9143 30.1142 15.1954 29.5977 15.4735C29.2941 15.6375 28.9848 15.7868 28.6929 15.9654C28.439 16.1176 28.2814 16.0562 28.115 15.8219C27.2803 14.6655 26.1975 13.834 24.852 13.3567C23.8889 13.0142 22.8907 12.9175 21.8897 13.0552C20.5967 13.2337 19.4322 13.7578 18.4341 14.6245C18.1247 14.8938 18.0867 14.8792 17.7774 14.6186C17.0565 14.0096 16.6158 13.2279 16.3268 12.3437C16.1926 11.9338 16.2189 11.8665 16.5603 11.5942C17.9146 10.5167 19.4702 9.89018 21.1513 9.5769C21.6854 9.48028 22.2399 9.49492 22.7828 9.45686Z" fill="#2B2B2B"/>
</svg>
