<svg xmlns="http://www.w3.org/2000/svg" xmlns:xlink="http://www.w3.org/1999/xlink" version="1.1" x="0px" y="0px" viewBox="0 2 98 98" xml:space="preserve" width="0" height="0">
<path d="M92.2,34.7L50.7,5.9c-1-0.7-2.4-0.7-3.4,0L5.8,34.7c-0.8,0.6-1.3,1.5-1.3,2.5v56.4c0,1.7,1.3,3,3,3h83  c1.7,0,3-1.3,3-3V37.2C93.5,36.2,93,35.3,92.2,34.7z M30.5,68.7l-20,18.5V45.5L30.5,68.7z M49,59.8l33.3,30.8H15.7L49,59.8z   M67.9,69.1l19.6-23.4v41.5L67.9,69.1z M49,12.1l37.2,25.8L63.5,65.1L51,53.5c-1.2-1.1-2.9-1.1-4.1,0l-12,11.1L11.8,37.9L49,12.1z"/>
</svg>
