<svg width="71" height="72" viewBox="0 0 71 72" fill="none" xmlns="http://www.w3.org/2000/svg">
<g filter="url(#filter0_d)">
<path d="M18.6747 11.5917C19.4052 11.5917 20.1356 11.5917 20.8661 11.5917C21.4687 11.6106 21.7061 11.7802 21.8888 12.3643C23.021 15.8501 24.135 19.3171 25.2489 22.8029C25.4498 23.4247 25.3402 23.7262 24.7924 24.103C23.4045 25.064 21.9983 26.0249 20.6104 26.9859C19.8252 27.5323 19.7339 27.7773 20.0991 28.7005C21.907 33.2981 24.5915 37.2926 27.9517 40.7973C31.4214 44.415 35.4025 47.2791 39.9862 49.201C40.8445 49.559 41.1002 49.4836 41.6115 48.6922C42.5429 47.2602 43.4559 45.847 44.3873 44.415C44.8256 43.7555 45.0812 43.6613 45.7935 43.9063C49.1171 45.0557 52.4407 46.205 55.7827 47.3356C56.2027 47.4863 56.5497 47.7124 56.5314 48.2023C56.5131 50.0489 56.6044 51.8954 56.367 53.7231C56.0018 56.6814 53.2625 59.3193 50.3772 59.5265C48.6971 59.6584 46.9987 59.5642 45.3186 59.4135C42.1228 59.112 39.0183 58.3772 36.0051 57.2278C26.8012 53.7043 19.7704 47.524 14.931 38.7246C12.6483 34.5605 11.1326 30.0949 10.4751 25.3655C10.1647 23.2174 10.0186 21.0317 10.0003 18.8649C9.9638 15.021 12.977 11.8178 16.7207 11.6294C17.3781 11.5917 18.0173 11.6294 18.6747 11.6294C18.6747 11.6106 18.6747 11.6106 18.6747 11.5917Z" fill="white"/>
<path d="M60.0381 31.6777C60.0381 32.8647 59.3441 33.6938 58.431 33.7692C57.4631 33.8634 56.6414 33.2416 56.477 32.2618C56.2213 30.8486 56.1483 29.3789 55.7283 28.0223C53.0255 18.9968 47.1452 13.6267 38.1422 11.8744C37.6856 11.7802 37.2108 11.7802 36.7543 11.7237C35.6585 11.5918 34.9463 10.7439 35.0376 9.66985C35.129 8.61468 36.0238 7.89867 37.1195 8.01172C41.5388 8.42625 45.6112 9.89595 49.2271 12.5339C55.0161 16.7546 58.5771 22.4826 59.7641 29.7181C59.9102 30.4341 59.9833 31.1689 60.0381 31.6777Z" fill="white"/>
<path d="M52.8605 31.6776C52.8605 32.8647 52.1666 33.6749 51.2717 33.7691C50.2856 33.8633 49.4456 33.2415 49.3177 32.2052C49.0255 29.9065 48.3498 27.7396 47.0898 25.7988C44.6427 22.0304 41.2643 19.7505 36.8814 19.1287C35.5483 18.9403 34.7813 17.8851 35.1466 16.6792C35.4205 15.8125 36.2423 15.2849 37.1554 15.3979C44.6975 16.2647 51.1622 22.3884 52.6048 30.0949C52.7144 30.6978 52.8057 31.3008 52.8605 31.6776Z" fill="white"/>
<path d="M36.863 22.8595C38.0135 23.0102 39.0909 23.4059 40.0953 23.9523C42.9807 25.5728 44.8069 28.0411 45.5739 31.3573C45.8295 32.4878 45.2817 33.4865 44.2407 33.7314C43.2363 33.9764 42.3415 33.298 42.0493 32.1675C41.3006 29.1528 39.4744 27.2874 36.5343 26.5526C35.6942 26.3453 35.1098 25.6858 35.0551 24.8568C35.0003 23.99 35.4751 23.2363 36.2786 22.9725C36.4612 22.916 36.6804 22.8972 36.863 22.8595Z" fill="white"/>
</g>
<defs>
<filter id="filter0_d" x="0" y="0" width="70.0381" height="71.5894" filterUnits="userSpaceOnUse" color-interpolation-filters="sRGB">
<feFlood flood-opacity="0" result="BackgroundImageFix"/>
<feColorMatrix in="SourceAlpha" type="matrix" values="0 0 0 0 0 0 0 0 0 0 0 0 0 0 0 0 0 0 127 0"/>
<feOffset dy="2"/>
<feGaussianBlur stdDeviation="5"/>
<feColorMatrix type="matrix" values="0 0 0 0 0 0 0 0 0 0 0 0 0 0 0 0 0 0 0.25 0"/>
<feBlend mode="normal" in2="BackgroundImageFix" result="effect1_dropShadow"/>
<feBlend mode="normal" in="SourceGraphic" in2="effect1_dropShadow" result="shape"/>
</filter>
</defs>
</svg>
