<svg width="25" height="23" viewBox="0 0 25 23" fill="none" xmlns="http://www.w3.org/2000/svg">
<path d="M23.0167 2.17667C21.7226 0.773048 19.9469 0 18.0162 0C16.5731 0 15.2515 0.456238 14.0881 1.35593C13.501 1.81007 12.969 2.36568 12.5 3.01418C12.0312 2.36588 11.499 1.81007 10.9118 1.35593C9.74846 0.456238 8.42686 0 6.98376 0C5.05314 0 3.27721 0.773048 1.98307 2.17667C0.704384 3.56388 0 5.45902 0 7.51324C0 9.62753 0.787926 11.5629 2.47955 13.6042C3.99284 15.4301 6.16779 17.2836 8.68645 19.43C9.54647 20.163 10.5213 20.9938 11.5335 21.8788C11.801 22.113 12.1441 22.242 12.5 22.242C12.8557 22.242 13.199 22.113 13.4661 21.8792C14.4783 20.994 15.4537 20.1628 16.3141 19.4294C18.8324 17.2834 21.0073 15.4301 22.5206 13.604C24.2123 11.5629 25 9.62753 25 7.51305C25 5.45902 24.2956 3.56388 23.0167 2.17667Z" fill="white"/>
</svg>
