<svg width="23" height="23" viewBox="0 0 23 23" fill="none" xmlns="http://www.w3.org/2000/svg">
<path d="M15.6864 13.5474C18.3465 9.83137 17.4568 4.68569 13.7005 2.05469C9.94425 -0.576299 4.74289 0.303213 2.08343 4.01992C-0.576032 7.736 0.312998 12.8811 4.06993 15.5121C6.75099 17.3899 10.2957 17.5345 13.1235 15.8823L19.2679 21.9245C19.9314 22.6154 21.0352 22.6431 21.7336 21.9867C22.432 21.331 22.4599 20.239 21.7971 19.5481C21.7762 19.5261 21.7558 19.506 21.7336 19.4853L15.6864 13.5474ZM8.87984 14.1107C5.91153 14.1114 3.50499 11.7325 3.50308 8.79595C3.50245 5.85942 5.90708 3.47864 8.87602 3.47738C11.8405 3.47612 14.2458 5.85124 14.2515 8.784C14.2566 11.7212 11.8532 14.1057 8.88365 14.1107H8.87984Z" fill="white"/>
</svg>
