<?xml version="1.0" encoding="utf-8"?>
<!-- Generator: Adobe Illustrator 22.1.0, SVG Export Plug-In . SVG Version: 6.00 Build 0)  -->
<svg version="1.1" xmlns="http://www.w3.org/2000/svg" xmlns:xlink="http://www.w3.org/1999/xlink" x="0px" y="0px"
	 viewBox="0 0 496 49" style="enable-background:new 0 0 496 49;" xml:space="preserve">
<style type="text/css">
	.st0{display:none;}
	.st1{display:inline;fill:#EC3838;}
	.st2{fill:#FF0000;}
</style>
<g id="Слой_1" class="st0">
	<text transform="matrix(1 0 0 1 152.498 98.9082)" class="st1" style="font-family:'MyriadPro-Regular'; font-size:53.6525px;">MOOD</text>
	<path class="st1" d="M137.4,102h-28.8c-3.7,0-6.6-3-6.6-6.6V65.1c0-3.7,3-6.6,6.6-6.6h28.8c3.7,0,6.6,3,6.6,6.6v30.3
		C144,99,141,102,137.4,102z"/>
	
		<text transform="matrix(1.1252 0 0 1 108.6611 94.7305)" style="display:inline;fill:#FFFFFF; font-family:'MyriadPro-Regular'; font-size:40.299px;">U</text>
</g>
<g id="Слой_2">
	
		<image style="display:none;overflow:visible;" width="800" height="408" xlink:href="742E7D32.jpg"  transform="matrix(1.0002 0 0 1.0002 -148 -190)">
	</image>
	<path class="st2" d="M186,48c-2.8,0-5-2.2-5-5V17.3c-7.4,6-19.3,12.7-36,12.7s-28.6-6.6-36-12.7V43c0,2.8-2.2,5-5,5s-5-2.2-5-5V5
		c0-2.2,1.4-4.1,3.5-4.8c2.1-0.6,4.4,0.2,5.6,2C108.6,2.9,120.6,20,145,20c24.6,0,36.7-17.6,36.9-17.8c1.2-1.8,3.5-2.6,5.6-2
		c2.1,0.6,3.5,2.6,3.5,4.8v38C191,45.8,188.8,48,186,48z"/>
	<path class="st2" d="M274,48h-50c-10.1,0-21-9.6-21-25c0-14.8,11.2-23,19-23h53c5.8,0,17,8.1,17,23C292,38,282.7,48,274,48z
		 M222,10c-2.5,0-9,4-9,13c0,9,5.7,15,11,15h50c2.7,0,8-5.3,8-15c0-8.4-5.5-12.5-7.2-13H222z M275,10L275,10L275,10z"/>
	<path class="st2" d="M62,48H28C15.1,48,0,41.5,0,23V5c0-2.8,2.2-5,5-5s5,2.2,5,5v18c0,13.1,11.3,15,18,15h34c1.7,0,17-0.4,17-15V5
		c0-2.8,2.2-5,5-5s5,2.2,5,5v18C89,42.8,71.3,48,62,48z"/>
	<path class="st2" d="M353,48h-50c-10.1,0-21-9.6-21-25c0-14.8,11.2-23,19-23h53c5.8,0,17,8.1,17,23C371,38,361.7,48,353,48z
		 M301,10c-2.5,0-9,4-9,13c0,9,5.7,15,11,15h50c2.7,0,8-5.3,8-15c0-8.4-5.5-12.5-7.2-13H301z M354,10L354,10L354,10z"/>
	<path class="st2" d="M432.3,47.5c-9.9,0-24.3-0.1-45.3-0.5c-2.7,0-4.9-2.3-4.9-5V23c0-2.8,2.2-5,5-5s5,2.2,5,5v14.1
		c22.8,0.3,55.3,0.6,59.7,0.1c3.1-1,9.3-3.2,9.3-14.2c0-9.7-5.4-11.7-8.7-12.9c-0.3-0.1-0.5-0.2-0.8-0.3c-5.3-0.5-41.4-0.2-63.5,0.2
		c0,0-0.1,0-0.1,0c-2.7,0-5-2.2-5-4.9c0-2.8,2.2-5,4.9-5.1c64.2-1,66-0.1,67.3,0.5c0.1,0,0.3,0.1,0.5,0.2C465.9,4.4,471,11.9,471,23
		c0,8.4-2.8,19.2-16.2,23.7l-0.2,0.1C453.9,47,452.5,47.5,432.3,47.5z M451.5,37.2C451.5,37.2,451.4,37.2,451.5,37.2L451.5,37.2z
		 M451.9,9.9L451.9,9.9L451.9,9.9z M450.8,9.5C450.8,9.5,450.8,9.5,450.8,9.5C450.8,9.5,450.8,9.5,450.8,9.5z"/>
	<circle class="st2" cx="489" cy="42" r="7"/>
	<circle class="st2" cx="146" cy="42" r="7"/>
</g>
</svg>
